<svg width="100%" height="100%" viewBox="0 0 24 24" fill="currentColor" xmlns="http://www.w3.org/2000/svg">
<path d="M3.42864 13.7143L12.8572 13.7151C13.7605 13.7151 14.5013 14.4141 14.5668 15.3014L14.5715 15.4294V17.5714C14.5706 21.1714 10.8969 22.2857 8.14293 22.2857C5.44401 22.2857 1.86097 21.2155 1.71873 17.7844L1.71436 17.5714V15.4286C1.71436 14.5253 2.41412 13.7845 3.30076 13.719L3.42864 13.7143ZM20.5715 13.7143L20.6994 13.719C21.5417 13.7812 22.2153 14.4529 22.2806 15.2943L22.2858 15.4286V17.1428C22.2849 20.3648 19.3458 21.4286 17.1429 21.4286C16.2361 21.4286 15.2066 21.2443 14.3066 20.8071C14.5792 20.4831 14.8098 20.1231 14.9898 19.7203C15.8106 20.0803 16.6963 20.1364 17.0707 20.1423L17.3181 20.1397C18.2058 20.1091 20.8584 19.81 20.9946 17.3422L21.0001 17.1428V15.4286C21.0001 15.2183 20.8477 15.0432 20.6483 15.0069L20.5715 15L15.3849 15.0008C15.3129 14.5711 15.1333 14.1801 14.8753 13.8519L14.7601 13.7151L20.5715 13.7143ZM3.42864 15L3.34236 15.0086C3.23575 15.0302 3.16293 15.0881 3.12521 15.1251C3.08818 15.1628 3.03031 15.2351 3.00864 15.3419L3.00007 15.4286V17.5714C3.00007 18.7191 3.50321 19.5677 4.53864 20.1643C5.39266 20.6577 6.58665 20.9554 7.85022 20.9954L8.14293 21L8.51567 20.9912C9.81903 20.933 13.1264 20.5141 13.2802 17.7705L13.2858 17.5706V15.4294C13.2858 15.2199 13.1334 15.0442 12.934 15.0078L12.8572 15.0008L3.42864 15ZM8.14293 2.57141C10.7469 2.57141 12.8572 4.68255 12.8572 7.2857C12.8572 9.88884 10.7469 12 8.14293 12C5.53893 12 3.42864 9.88884 3.42864 7.2857C3.42864 4.68255 5.53893 2.57141 8.14293 2.57141ZM17.5715 4.2857C19.7015 4.2857 21.4286 6.01284 21.4286 8.14284C21.4286 10.2728 19.7015 12 17.5715 12C15.4415 12 13.7144 10.2728 13.7144 8.14284C13.7144 6.01284 15.4415 4.2857 17.5715 4.2857ZM8.14293 3.85713C6.25207 3.85713 4.71436 5.39484 4.71436 7.2857C4.71436 9.17655 6.25207 10.7143 8.14293 10.7143C10.0338 10.7143 11.5715 9.17655 11.5715 7.2857C11.5715 5.39484 10.0338 3.85713 8.14293 3.85713ZM17.5715 5.57141C16.1538 5.57141 15.0001 6.72513 15.0001 8.14284C15.0001 9.56055 16.1538 10.7143 17.5715 10.7143C18.9892 10.7143 20.1429 9.56055 20.1429 8.14284C20.1429 6.72513 18.9892 5.57141 17.5715 5.57141Z"/>
</svg>
