<svg width="100%" height="100%" viewBox="0 0 24 24" fill="currentColor" xmlns="http://www.w3.org/2000/svg">
<path fill-rule="evenodd" clip-rule="evenodd" d="M11.5951 2.25699C11.4071 2.35999 1.8421 11.04 1.7261 11.213C1.5221 11.517 1.6781 11.974 2.0701 12.223C2.2691 12.349 2.4451 12.367 2.6461 12.283C2.7171 12.253 3.2071 11.839 3.7351 11.362L4.6951 10.495L4.7151 15.893L4.7351 21.291L4.8191 21.404C4.88115 21.4802 4.95551 21.5454 5.0391 21.597C5.1741 21.676 5.2471 21.677 11.9151 21.677C18.5831 21.677 18.6561 21.676 18.7911 21.597C18.8747 21.5454 18.9491 21.4802 19.0111 21.404L19.0951 21.291L19.1151 15.892L19.1351 10.494L20.0311 11.305C20.5231 11.752 20.9861 12.16 21.0601 12.213C21.1401 12.271 21.2691 12.315 21.3841 12.326C21.9081 12.373 22.3901 11.635 22.1071 11.217C21.9811 11.031 12.4171 2.35599 12.2271 2.25599C12.1289 2.20705 12.0207 2.18165 11.911 2.18182C11.8013 2.182 11.6931 2.20773 11.5951 2.25699ZM14.8021 6.55999L17.6291 9.11699L17.6321 14.647L17.6351 20.177H6.1951L6.1981 14.647L6.2011 9.11699L9.0441 6.54599C10.6081 5.13099 11.9071 3.98099 11.9311 3.98899C11.9551 3.99699 13.2471 5.15399 14.8021 6.55999Z" />
</svg>
