<svg width="100%" height="100%" viewBox="0 0 32 32" fill="currentColor" xmlns="http://www.w3.org/2000/svg">
<g>
<path d="M13.5023 5.4136C13.0438 7.37083 12.9815 9.39997 13.3188 11.3817C13.6562 13.3634 14.3864 15.2576 15.4667 16.9529C16.5469 18.6481 17.9553 20.1103 19.6089 21.2532C21.2626 22.3962 23.1281 23.1969 25.0958 23.6082C24.0612 24.6784 22.8222 25.5299 21.4523 26.1121C20.0823 26.6943 18.6094 26.9954 17.1209 26.9975C16.9824 26.9975 16.8427 27.0026 16.7031 26.9975C14.1117 26.9058 11.6344 25.9094 9.70125 24.1812C7.76813 22.4531 6.50137 20.1024 6.12101 17.5375C5.74064 14.9726 6.27069 12.3555 7.6191 10.1407C8.9675 7.9259 11.0491 6.25338 13.5023 5.4136V5.4136ZM14.9798 3C14.9212 3.00009 14.8628 3.00531 14.8052 3.0156C11.6209 3.58119 8.75859 5.30502 6.76947 7.85505C4.78034 10.4051 3.80514 13.601 4.0317 16.8271C4.25826 20.0532 5.67056 23.0814 7.99656 25.3284C10.3226 27.5754 13.3977 28.8823 16.6298 28.9973C16.7939 29.0033 16.958 28.9973 17.1207 28.9973C19.2195 28.9984 21.2877 28.4941 23.1505 27.5271C25.0133 26.5601 26.6158 25.1588 27.8227 23.4417C27.9205 23.2937 27.9776 23.1226 27.9883 22.9455C27.9989 22.7684 27.9627 22.5917 27.8833 22.4331C27.8038 22.2744 27.684 22.1396 27.5359 22.042C27.3877 21.9444 27.2165 21.8876 27.0394 21.8773C25.0416 21.702 23.1108 21.0697 21.3963 20.0293C19.6819 18.9888 18.2296 17.568 17.1518 15.8767C16.0741 14.1855 15.3996 12.269 15.1806 10.2755C14.9617 8.28204 15.204 6.26489 15.889 4.38C15.9472 4.22919 15.9686 4.06665 15.9514 3.9059C15.9341 3.74515 15.8787 3.59085 15.7898 3.45584C15.7008 3.32084 15.5809 3.20903 15.44 3.12974C15.2991 3.05045 15.1413 3.00597 14.9798 3V3Z" />
</g>
</svg>
