<svg width="100%" height="100%" viewBox="0 0 24 24" fill="currentColor" xmlns="http://www.w3.org/2000/svg">
<path d="M12 8.14294C9.86974 8.14294 8.14285 9.86986 8.14285 12.0001C8.14285 14.1303 9.86974 15.8573 12 15.8573C13.1561 15.8573 14.1934 15.3486 14.9004 14.5428C15.496 13.864 15.8571 12.9742 15.8571 12.0001C15.8571 11.6058 15.798 11.2254 15.6881 10.8672C15.2042 9.28984 13.736 8.14294 12 8.14294ZM9.42857 12.0001C9.42857 10.5799 10.5798 9.42869 12 9.42869C13.4202 9.42869 14.5714 10.5799 14.5714 12.0001C14.5714 13.4202 13.4202 14.5716 12 14.5716C10.5798 14.5716 9.42857 13.4202 9.42857 12.0001Z" />
<path d="M18.608 19.1956L17.1273 18.5455C16.7037 18.3598 16.2061 18.387 15.8057 18.6188C15.4053 18.8506 15.15 19.2594 15.0992 19.72L14.9211 21.3304C14.8844 21.6626 14.6434 21.9358 14.319 22.0132C12.794 22.3767 11.205 22.3767 9.67997 22.0132C9.35554 21.9358 9.11451 21.6626 9.07782 21.3304L8.90005 19.7223C8.84785 19.2627 8.58102 18.8551 8.18101 18.6241C7.78099 18.3931 7.29528 18.3659 6.87307 18.5506L5.39203 19.2008C5.08526 19.3354 4.72708 19.2616 4.49833 19.0165C3.43263 17.8745 2.63934 16.5052 2.17818 15.0118C2.07885 14.6901 2.19361 14.3406 2.4642 14.1409L3.7733 13.1746C4.14618 12.9001 4.3664 12.4642 4.3664 12.0006C4.3664 11.537 4.14617 11.101 3.77281 10.8262L2.46453 9.86153C2.19354 9.66173 2.07868 9.31185 2.17835 8.9899C2.64032 7.49774 3.43403 6.12999 4.49975 4.98957C4.72871 4.74454 5.08707 4.67094 5.39379 4.80594L6.86825 5.45491C7.29251 5.64146 7.78025 5.61328 8.18243 5.37786C8.58282 5.14514 8.84948 4.73596 8.90091 4.2754L9.07997 2.66588C9.11742 2.32976 9.36385 2.05462 9.69334 1.9812C10.4486 1.81291 11.2192 1.72348 12.0112 1.71436C12.784 1.72328 13.5538 1.81275 14.3081 1.9813C14.6374 2.05488 14.8837 2.32993 14.9211 2.66588L15.1003 4.27662C15.1814 5.0162 15.8046 5.57635 16.5476 5.57713C16.7473 5.57745 16.9449 5.53577 17.1294 5.45397L18.6041 4.80489C18.9108 4.66989 19.2692 4.74349 19.4981 4.98851C20.5639 6.12893 21.3576 7.49668 21.8195 8.98888C21.9191 9.31056 21.8045 9.66028 21.5338 9.86016L20.2267 10.8255C19.8538 11.1 19.6286 11.536 19.6286 11.9995C19.6286 12.4631 19.8538 12.8991 20.2275 13.1741L21.5358 14.1399C21.8066 14.3397 21.9213 14.6894 21.8217 15.0112C21.3598 16.5031 20.5666 17.8708 19.5015 19.0114C19.2728 19.2563 18.9147 19.3301 18.608 19.1956ZM13.9397 19.0257C14.1413 18.4016 14.5619 17.8533 15.1615 17.5061C15.9173 17.0685 16.8459 17.0183 17.6435 17.368L18.7955 17.8737C19.5351 17.0176 20.108 16.0297 20.4841 14.9616L19.4653 14.2096L19.4645 14.209C18.7697 13.6972 18.3429 12.8809 18.3429 11.9995C18.3429 11.1188 18.7692 10.3024 19.4634 9.7909L19.4644 9.79013L20.482 9.03859C20.1057 7.97042 19.5327 6.98261 18.7927 6.12662L17.6505 6.62938L17.6485 6.63025C17.3009 6.78399 16.9262 6.86335 16.5462 6.86284C15.147 6.86104 13.9754 5.80657 13.8224 4.41829L13.8222 4.4168L13.683 3.16548C13.1316 3.06283 12.5723 3.00749 12.0111 3.00016C11.4333 3.00766 10.8704 3.06316 10.318 3.16569L10.1787 4.41818C10.0821 5.28235 9.58225 6.05067 8.83019 6.48847C8.07374 6.93053 7.15245 6.9844 6.3503 6.63168L5.20519 6.12767C4.46527 6.9836 3.89221 7.9713 3.51596 9.03936L4.53583 9.79142C5.23812 10.3088 5.65211 11.1289 5.65211 12.0006C5.65211 12.872 5.23835 13.6922 4.53631 14.2094L3.51566 14.9628C3.89144 16.0324 4.46442 17.0216 5.20461 17.8789L6.35778 17.3728C7.15495 17.024 8.07062 17.0756 8.82402 17.5108C9.57771 17.946 10.0794 18.7132 10.1775 19.5772L10.1781 19.581L10.3167 20.8361C11.4279 21.0547 12.571 21.0547 13.6822 20.8361L13.8212 19.5787C13.8421 19.39 13.8819 19.2047 13.9397 19.0257Z" />
</svg>
