<svg width="100%" height="100%" viewBox="0 0 32 32" fill="currentColor" xmlns="http://www.w3.org/2000/svg">
<g clip-path="url(#clip0_660_3834)">
<path d="M17 2H15V7H17V2Z"/>
<path d="M25.1924 5.39358L21.6865 8.89941L23.1006 10.3135L26.6064 6.80765L25.1924 5.39358Z"/>
<path d="M30 15H25V17H30V15Z"/>
<path d="M23.1006 21.6866L21.6865 23.1006L25.1924 26.6065L26.6064 25.1924L23.1006 21.6866Z"/>
<path d="M17 25H15V30H17V25Z"/>
<path d="M8.89939 21.6865L5.39355 25.1924L6.80763 26.6065L10.3135 23.1006L8.89939 21.6865Z"/>
<path d="M7 15H2V17H7V15Z"/>
<path d="M6.80763 5.39354L5.39355 6.80762L8.89939 10.3135L10.3135 8.89938L6.80763 5.39354Z"/>
<path d="M16 12C16.7911 12 17.5645 12.2346 18.2223 12.6741C18.8801 13.1136 19.3928 13.7384 19.6955 14.4693C19.9983 15.2002 20.0775 16.0044 19.9231 16.7804C19.7688 17.5563 19.3878 18.269 18.8284 18.8284C18.269 19.3878 17.5563 19.7688 16.7804 19.9231C16.0044 20.0775 15.2002 19.9983 14.4693 19.6955C13.7384 19.3928 13.1136 18.8801 12.6741 18.2223C12.2346 17.5645 12 16.7911 12 16C12.0012 14.9395 12.423 13.9228 13.1729 13.1729C13.9228 12.423 14.9395 12.0012 16 12ZM16 10C14.8133 10 13.6533 10.3519 12.6666 11.0112C11.6799 11.6705 10.9109 12.6075 10.4567 13.7039C10.0026 14.8003 9.88378 16.0067 10.1153 17.1705C10.3468 18.3344 10.9182 19.4035 11.7574 20.2426C12.5965 21.0818 13.6656 21.6532 14.8295 21.8847C15.9933 22.1162 17.1997 21.9974 18.2961 21.5433C19.3925 21.0892 20.3295 20.3201 20.9888 19.3334C21.6481 18.3467 22 17.1867 22 16C22 14.4087 21.3679 12.8826 20.2426 11.7574C19.1174 10.6321 17.5913 10 16 10Z"/>
</g>
</svg>
