<svg viewBox="0 0 24 24" fill="none" xmlns="http://www.w3.org/2000/svg"><path d="M7 2.28a5.179 5.179 0 0 0-.755.095A2.67 2.67 0 0 0 4.46 3.979c-.206.551-.2.27-.2 8.701 0 7.426.004 7.871.071 8.06a1.6 1.6 0 0 0 .929.929c.188.067.551.071 6.1.071 5.624 0 5.911-.003 6.139-.074a1.57 1.57 0 0 0 .745-.454c.419-.437.482-.658.506-1.777l.019-.865.145-.083c.173-.098.481-.411.596-.607.046-.077.116-.248.156-.38.071-.229.074-.552.074-7 0-6.46-.003-6.771-.074-6.999a1.57 1.57 0 0 0-.454-.745 1.607 1.607 0 0 0-.692-.421c-.208-.069-.512-.073-5.62-.079-2.97-.003-5.625.008-5.9.024m11.167 1.546c.07.064.073.323.073 6.674 0 6.302-.003 6.611-.072 6.672-.065.06-.577.066-5.73.077l-5.658.012-.306.087a3.473 3.473 0 0 0-.51.19l-.204.103v-6.31c.001-4.223.015-6.397.043-6.571.079-.488.454-.879.917-.955.122-.02 2.698-.038 5.797-.04 5.137-.005 5.582 0 5.65.061m-.927 15.601c0 .564-.01.678-.066.74-.064.07-.294.073-5.746.073H5.749l.024-.2c.063-.537.464-1.021.999-1.206.196-.067.507-.071 5.338-.073l5.13-.001v.667" fill-rule="evenodd" fill="currentColor"/></svg>