<svg viewBox="0 0 24 24" fill="none" xmlns="http://www.w3.org/2000/svg"><path d="M11.24.023a52.57 52.57 0 0 1-.58.06c-2.005.2-4.152 1.043-5.796 2.276-3.2 2.4-4.976 6.07-4.85 10.021.172 5.401 3.884 9.975 9.151 11.276 3.089.764 6.484.22 9.175-1.47a11.996 11.996 0 0 0 5.317-7.355c.258-1.052.318-1.588.318-2.831 0-1.243-.06-1.779-.318-2.831C22.468 4.316 18.472.747 13.5.096 13.074.04 11.524-.01 11.24.023m1.62 2.02a9.88 9.88 0 0 1 6.182 2.877c.58.579.912.984 1.328 1.62a9.978 9.978 0 0 1-.071 11.02c-2.983 4.459-8.927 5.765-13.519 2.97-1.287-.784-2.551-2.055-3.329-3.35a10.001 10.001 0 0 1 0-10.36C4.24 5.507 5.507 4.24 6.82 3.451a9.98 9.98 0 0 1 6.04-1.408" fill="currentColor" fill-rule="evenodd"/></svg>