<svg xmlns="http://www.w3.org/2000/svg" viewBox="0 0 24 24" fill="none" stroke="currentColor" stroke-width="1.5" stroke-linecap="round" stroke-linejoin="round" class="feather feather-clock"><path d="M11.5 1.266A10.784 10.784 0 0 0 3.017 6.1c-.862 1.31-1.412 2.761-1.663 4.388-.126.819-.126 2.205 0 3.024.367 2.381 1.392 4.424 3.051 6.083a10.579 10.579 0 0 0 4.319 2.638 9.937 9.937 0 0 0 1.764.413c.819.126 2.205.126 3.024 0 .971-.15 1.804-.383 2.683-.751 2.522-1.057 4.643-3.178 5.7-5.7.588-1.405.841-2.663.841-4.195 0-1.532-.253-2.79-.841-4.195-1.244-2.969-3.816-5.236-6.972-6.144a11.283 11.283 0 0 0-3.423-.395m1.426 1.535A9.246 9.246 0 0 1 20.279 7.9c.453.923.702 1.702.868 2.72.101.621.101 2.139 0 2.76-.334 2.044-1.221 3.773-2.674 5.209a8.551 8.551 0 0 1-2.373 1.692 9.193 9.193 0 0 1-2.693.867c-.607.102-2.207.102-2.814 0a9.193 9.193 0 0 1-2.693-.867 9.254 9.254 0 0 1-4.078-3.969A9.258 9.258 0 0 1 4.814 6.18a12.146 12.146 0 0 1 1.406-1.4C7.581 3.695 9.321 2.977 11 2.805c.488-.05 1.444-.052 1.926-.004M11.82 5.276a.729.729 0 0 0-.538.515c-.059.212-.057 6.173.002 6.389.096.35.091.347 2.354 1.478 1.162.581 2.175 1.068 2.251 1.083.278.052.638-.125.769-.377a.775.775 0 0 0-.084-.844c-.076-.09-.608-.376-1.959-1.052l-1.855-.928v-2.8c0-1.802-.015-2.853-.042-2.949a.8.8 0 0 0-.353-.448.951.951 0 0 0-.545-.067" fill="currentColor" fill-rule="evenodd" stroke="none"/></svg>