<svg xmlns="http://www.w3.org/2000/svg" viewBox="0 0 24 24" fill="none" stroke="currentColor" stroke-width="1.5" stroke-linecap="round" stroke-linejoin="round" class="feather feather-x-circle"><path d="M11.5 1.266A10.784 10.784 0 0 0 3.017 6.1c-.862 1.31-1.412 2.761-1.663 4.388-.126.819-.126 2.205 0 3.024.367 2.381 1.392 4.424 3.051 6.083a10.579 10.579 0 0 0 4.319 2.638 9.937 9.937 0 0 0 1.764.413c.819.126 2.205.126 3.024 0 .971-.15 1.804-.383 2.683-.751 2.522-1.057 4.643-3.178 5.7-5.7.588-1.405.841-2.663.841-4.195 0-1.532-.253-2.79-.841-4.195-1.244-2.969-3.816-5.236-6.972-6.144a11.283 11.283 0 0 0-3.423-.395m1.426 1.535A9.246 9.246 0 0 1 20.279 7.9c.453.923.702 1.702.868 2.72.101.621.101 2.139 0 2.76-.334 2.044-1.221 3.773-2.674 5.209a8.551 8.551 0 0 1-2.373 1.692 9.193 9.193 0 0 1-2.693.867c-.607.102-2.207.102-2.814 0a9.193 9.193 0 0 1-2.693-.867 9.254 9.254 0 0 1-4.078-3.969A9.258 9.258 0 0 1 4.814 6.18a12.146 12.146 0 0 1 1.406-1.4C7.581 3.695 9.321 2.977 11 2.805c.488-.05 1.444-.052 1.926-.004M8.805 8.279c-.393.095-.632.518-.525.926.041.154.2.329 1.352 1.485L10.938 12l-1.306 1.31c-1.152 1.156-1.311 1.331-1.352 1.485a.75.75 0 0 0 .925.925c.154-.041.329-.2 1.485-1.352L12 13.062l1.31 1.306c1.156 1.152 1.331 1.311 1.485 1.352a.764.764 0 0 0 .613-.094.756.756 0 0 0 .312-.831c-.041-.154-.2-.329-1.352-1.485L13.062 12l1.305-1.31c1.096-1.1 1.313-1.336 1.349-1.47.054-.198.054-.242.002-.429a.803.803 0 0 0-.369-.457c-.135-.069-.425-.089-.609-.04-.083.022-.521.431-1.43 1.338l-1.311 1.307-1.289-1.285C10 8.947 9.384 8.351 9.34 8.329a.982.982 0 0 0-.535-.05" fill="currentColor" fill-rule="evenodd" stroke="none"/></svg>