<svg viewBox="0 0 24 24" fill="currentColor" xmlns="http://www.w3.org/2000/svg"><path d="M10.968 1.684c-3.134.279-6.024 2.055-7.754 4.765-.537.843-1.015 1.97-1.275 3.011-.225.899-.277 1.362-.277 2.46 0 1.107.051 1.558.285 2.495a10.32 10.32 0 0 0 5.213 6.619 10.267 10.267 0 0 0 9.501.011c.98-.509 1.697-1.038 2.522-1.862.824-.825 1.353-1.542 1.862-2.522A10.266 10.266 0 0 0 19.33 4.795a10.297 10.297 0 0 0-8.362-3.111m2.512 1.378c2.177.398 4.093 1.531 5.446 3.218a9.102 9.102 0 0 1 1.728 3.483c.08.33.226 1.163.226 1.292 0 .014-.173.025-.385.025-.321 0-.41.014-.54.087-.3.169-.406.634-.207.908.145.199.386.285.799.285h.369l-.02.21c-.125 1.269-.376 2.214-.852 3.21a8.94 8.94 0 0 1-1.763 2.499c-1.523 1.524-3.417 2.399-5.671 2.62l-.25.025v-.374c0-.307-.016-.404-.09-.551a.621.621 0 0 0-.806-.303c-.3.125-.424.397-.424.93v.262l-.21-.027A9.162 9.162 0 0 1 5.579 18.3c-1.485-1.473-2.451-3.525-2.611-5.55l-.031-.39H3.3c.574 0 .851-.184.89-.593a.608.608 0 0 0-.31-.602c-.125-.07-.218-.085-.535-.085h-.383l.022-.19a9.045 9.045 0 0 1 5.405-7.239 9.626 9.626 0 0 1 2.476-.664l.165-.018.019.367c.024.459.099.63.338.77a.5.5 0 0 0 .378.084c.411-.039.595-.315.595-.89v-.363l.39.031c.215.017.543.06.73.094m-6.125 3.85c-.405.212-.652.7-.559 1.106.045.193 1.577 4.222 1.796 4.722a4.98 4.98 0 0 0 2.272 2.397c.152.077 1.311.539 2.576 1.027 2.142.827 2.318.888 2.56.889.19 0 .311-.024.451-.091.395-.19.67-.672.61-1.071-.033-.217-1.718-4.621-1.924-5.027A4.923 4.923 0 0 0 13 8.725c-.209-.107-1.398-.584-2.641-1.06C8.238 6.854 8.081 6.8 7.833 6.8a.848.848 0 0 0-.478.112m2.849 2.073c1.065.409 2.044.799 2.176.865.718.362 1.25.897 1.618 1.626.142.281 1.612 4.088 1.588 4.112-.035.035-4.107-1.564-4.346-1.707a3.63 3.63 0 0 1-1.39-1.501c-.096-.191-1.61-4.07-1.61-4.126 0-.025.002-.025 1.964.731" fill-rule="evenodd"/></svg>