<svg width="100%" height="100%" viewBox="0 0 24 24" fill="currentColor" xmlns="http://www.w3.org/2000/svg">
<path d="M8.23474 6.8505C7.36844 6.51765 6.51746 7.36865 6.85033 8.23494L8.4953 12.5159C8.99587 13.8188 10.0254 14.8482 11.3282 15.3489L15.6093 16.9938C16.4756 17.3266 17.3266 16.4757 16.9938 15.6093L15.3488 11.3283C14.8482 10.0255 13.8187 8.99597 12.5158 8.49539L8.23474 6.8505ZM9.69547 12.0548L8.22327 8.22345L12.0547 9.69557C13.0177 10.0655 13.7786 10.8265 14.1486 11.7894L15.6208 15.6208L11.7893 14.1487C10.8264 13.7787 10.0654 13.0178 9.69547 12.0548Z" />
<path d="M11.9221 1.63635C6.24142 1.63635 1.63635 6.24142 1.63635 11.9221C1.63635 17.6027 6.24142 22.2078 11.9221 22.2078C17.6027 22.2078 22.2078 17.6027 22.2078 11.9221C22.2078 6.24142 17.6027 1.63635 11.9221 1.63635ZM11.0649 2.96235V3.56492C11.0649 3.91996 11.3528 4.20778 11.7078 4.20778C12.0628 4.20778 12.3506 3.91996 12.3506 3.56492V2.9321C16.8364 3.14239 20.4634 6.63661 20.8818 11.0649H20.2792C19.9242 11.0649 19.6364 11.3528 19.6364 11.7078C19.6364 12.0628 19.9242 12.3506 20.2792 12.3506H20.912C20.695 16.9802 16.9802 20.695 12.3506 20.912V20.2792C12.3506 19.9242 12.0628 19.6364 11.7078 19.6364C11.3528 19.6364 11.0649 19.9242 11.0649 20.2792V20.8818C6.63661 20.4634 3.14239 16.8364 2.9321 12.3506H3.56492C3.91996 12.3506 4.20778 12.0628 4.20778 11.7078C4.20778 11.3528 3.91996 11.0649 3.56492 11.0649H2.96235C3.36732 6.77853 6.77853 3.36732 11.0649 2.96235Z" />
</svg>
