<svg viewBox="0 0 24 24" fill="currentColor" xmlns="http://www.w3.org/2000/svg"><path d="m11.02 1.545-.56.079c-1.468.205-2.96.773-4.227 1.61C3.655 4.935 1.99 7.612 1.576 10.72c-.088.664-.088 1.889.001 2.56.41 3.106 2.086 5.797 4.663 7.491A10.344 10.344 0 0 0 12 22.488c1.228 0 2.164-.154 3.36-.553a10.47 10.47 0 0 0 6.311-5.855A10.493 10.493 0 0 0 20.42 5.74c-1.652-2.218-4.096-3.686-6.86-4.122-.403-.063-2.241-.117-2.54-.073m1.78 1.497a8.991 8.991 0 0 1 7.173 4.798c.454.869.774 1.858.933 2.886.097.625.097 1.919.001 2.554-.456 2.989-2.276 5.483-4.967 6.801A8.977 8.977 0 0 1 5.659 18.38c-2.268-2.249-3.161-5.524-2.358-8.653C4.384 5.503 8.446 2.645 12.8 3.042M11.18 7.58C9.061 7.968 7.512 9.833 7.508 12A4.489 4.489 0 0 0 12 16.493a4.504 4.504 0 0 0 4.362-3.401 4.53 4.53 0 0 0-.202-2.798c-.555-1.385-1.878-2.457-3.355-2.715-.404-.071-1.236-.07-1.625.001m1.356 1.479c1.487.265 2.561 1.647 2.448 3.15-.119 1.567-1.42 2.787-2.976 2.79-1.826.005-3.259-1.671-2.966-3.471a3.049 3.049 0 0 1 2.063-2.387 2.929 2.929 0 0 1 1.431-.082" fill-rule="evenodd"/></svg>