<svg xmlns="http://www.w3.org/2000/svg" viewBox="0 0 24 24" fill="none" stroke="currentColor" stroke-width="1.5" stroke-linecap="round" stroke-linejoin="round" class="feather feather-globe"><path d="M11.5 1.266A10.784 10.784 0 0 0 3.017 6.1c-.862 1.31-1.412 2.761-1.663 4.388-.126.819-.126 2.205 0 3.024.367 2.381 1.392 4.424 3.051 6.083a10.579 10.579 0 0 0 4.319 2.638 9.937 9.937 0 0 0 1.764.413c.819.126 2.205.126 3.024 0 .971-.15 1.804-.383 2.683-.751 2.522-1.057 4.643-3.178 5.7-5.7.588-1.405.841-2.663.841-4.195 0-1.532-.253-2.79-.841-4.195-1.244-2.969-3.816-5.236-6.972-6.144a11.283 11.283 0 0 0-3.423-.395M10.014 3.31c-1.559 2.332-2.446 4.834-2.715 7.66l-.025.27H2.789l.028-.307c.142-1.566.893-3.37 1.962-4.713a12.422 12.422 0 0 1 1.433-1.432 10.167 10.167 0 0 1 2.633-1.484c.371-.136 1.223-.375 1.363-.381.049-.002-.004.103-.194.387m4.283-.268c3.531.901 6.231 3.852 6.824 7.458.043.264.079.538.079.61v.13h-2.24c-1.29 0-2.24-.015-2.24-.036 0-.157-.1-.973-.18-1.464-.37-2.291-1.208-4.402-2.543-6.41-.15-.226-.251-.41-.225-.41.026 0 .263.055.525.122m-1.974.528c1.568 2.117 2.504 4.44 2.816 6.989.034.274.061.54.061.59v.091H8.8v-.091c0-.174.123-1.091.204-1.529a14.866 14.866 0 0 1 2.207-5.399c.227-.337.765-1.06.789-1.06.011 0 .157.184.323.409m-5.024 9.46c.269 2.826 1.156 5.328 2.715 7.66.144.214.24.39.214.39-.118 0-1.018-.25-1.375-.38a10.187 10.187 0 0 1-2.633-1.478c-.675-.541-1.465-1.413-1.954-2.154-.772-1.173-1.333-2.722-1.449-4.001l-.028-.307H7.274l.025.27m7.901-.179a14.592 14.592 0 0 1-2.908 7.621l-.277.364c-.019.022-.132-.12-.491-.616a14.687 14.687 0 0 1-2.52-5.84c-.081-.438-.204-1.355-.204-1.529v-.091h6.4v.091m6 .039c0 .209-.149 1.057-.262 1.49-.312 1.193-.956 2.453-1.758 3.44a11.883 11.883 0 0 1-1.4 1.402 10.187 10.187 0 0 1-2.633 1.478c-.357.131-1.258.38-1.375.38-.026 0 .075-.184.225-.41 1.335-2.008 2.173-4.119 2.543-6.41.08-.491.18-1.307.18-1.464 0-.021.95-.036 2.24-.036h2.24v.13" fill-rule="evenodd" fill="currentColor" stroke="none"/></svg>