<svg viewBox="0 0 24 24" fill="currentColor" xmlns="http://www.w3.org/2000/svg"><path d="M11.06 1.041a11.05 11.05 0 0 0-8.233 4.888l-.287.429-.022-.889c-.013-.489-.038-.925-.056-.969-.118-.281-.419-.497-.693-.499-.295-.002-.656.254-.729.517-.024.085-.039.958-.039 2.162V8.7l.093.2c.11.236.354.468.571.545.123.044.566.055 2.175.055 1.111 0 2.069-.014 2.129-.031.125-.035.373-.24.439-.364a.76.76 0 0 0-.343-1.028c-.15-.068-.281-.075-1.415-.076C3.962 8 3.4 7.988 3.4 7.973a9.581 9.581 0 0 1 3.404-3.92 9.49 9.49 0 0 1 4.231-1.496c.652-.068 1.933-.028 2.545.08 1.944.343 3.614 1.19 5.015 2.543 1.476 1.426 2.4 3.178 2.773 5.257.079.439.09.638.09 1.563 0 .925-.011 1.124-.09 1.563a9.416 9.416 0 0 1-.886 2.697 9.51 9.51 0 0 1-7.142 5.143c-.721.107-1.863.116-2.56.02a9.82 9.82 0 0 1-4.68-1.976 12.923 12.923 0 0 1-1.407-1.377c-1.231-1.47-2.057-3.525-2.156-5.365a4.17 4.17 0 0 0-.079-.646c-.221-.808-1.38-.677-1.45.164-.038.458.101 1.533.31 2.397.48 1.984 1.424 3.648 2.919 5.142 1.32 1.32 2.69 2.161 4.42 2.714 1.168.373 2.019.501 3.343.501 1.323 0 2.223-.137 3.4-.518 1.681-.545 3.063-1.399 4.361-2.698 1.319-1.318 2.164-2.693 2.716-4.422.372-1.164.5-2.017.5-3.339 0-1.052-.047-1.519-.242-2.394-.901-4.053-4.077-7.298-8.105-8.283-1.061-.259-2.526-.375-3.57-.282m.36 5.546c-.185.098-.265.179-.345.353-.069.151-.073.331-.073 3.06 0 2.738.004 2.909.074 3.063.041.09.124.203.186.251.062.049.919.55 1.906 1.113 1.516.866 1.824 1.028 1.988 1.044.263.025.451-.045.619-.231.285-.316.273-.752-.028-1.034-.056-.052-.8-.494-1.654-.982l-1.553-.887-.02-2.638c-.018-2.361-.027-2.652-.086-2.759-.088-.159-.267-.325-.407-.377-.162-.062-.468-.05-.607.024" fill-rule="evenodd"/></svg>