<svg width="100%" height="100%" viewBox="0 0 24 24" fill="currentColor" xmlns="http://www.w3.org/2000/svg">
<path d="M11.998 2.5C10.1864 2.49976 8.41242 3.01737 6.8852 3.99181C5.35797 4.96626 4.1411 6.35695 3.37798 8H5.74998C5.9489 8 6.13966 8.07902 6.28031 8.21967C6.42097 8.36032 6.49998 8.55109 6.49998 8.75C6.49998 8.94891 6.42097 9.13968 6.28031 9.28033C6.13966 9.42098 5.9489 9.5 5.74998 9.5H1.99998C1.73477 9.5 1.48041 9.39464 1.29288 9.20711C1.10534 9.01957 0.999984 8.76522 0.999984 8.5V4.75C0.999984 4.55109 1.079 4.36032 1.21965 4.21967C1.36031 4.07902 1.55107 4 1.74998 4C1.9489 4 2.13966 4.07902 2.28031 4.21967C2.42097 4.36032 2.49998 4.55109 2.49998 4.75V6.447C3.46948 4.78859 4.85648 3.41308 6.52289 2.45741C8.18931 1.50174 10.077 0.999261 11.998 1C18.074 1 23 5.925 23 12C23 18.075 18.074 23 11.998 23C6.01398 23 1.14598 18.223 0.999984 12.275C0.995078 12.0761 1.06939 11.8834 1.20657 11.7393C1.34376 11.5951 1.53257 11.5114 1.73148 11.5065C1.9304 11.5016 2.12311 11.5759 2.26723 11.7131C2.41135 11.8503 2.49508 12.0391 2.49998 12.238C2.56208 14.7157 3.59004 17.0711 5.36452 18.8015C7.139 20.5319 9.51947 21.5003 11.998 21.5C17.246 21.5 21.5 17.247 21.5 12C21.5 6.753 17.246 2.5 11.998 2.5Z" />
<path d="M12.5 7.25C12.5 7.05109 12.421 6.86032 12.2803 6.71967C12.1397 6.57902 11.9489 6.5 11.75 6.5C11.5511 6.5 11.3603 6.57902 11.2197 6.71967C11.079 6.86032 11 7.05109 11 7.25V12.75C11 13.02 11.144 13.268 11.378 13.401L14.878 15.401C15.0503 15.4941 15.2522 15.5161 15.4405 15.4624C15.6288 15.4086 15.7886 15.2833 15.8858 15.1133C15.9829 14.9433 16.0097 14.742 15.9604 14.5524C15.9112 14.3629 15.7897 14.2002 15.622 14.099L12.5 12.315V7.25Z" />
</svg>
