<svg viewBox="0 0 24 24" fill="currentColor" xmlns="http://www.w3.org/2000/svg"><path d="M11.599 2.267c-.46.311-9.793 8.809-9.899 9.012-.128.249-.028.6.238.834.181.159.297.207.501.207.191 0 .341-.11 1.208-.885l.832-.742.188-.168.026 2.008c.015 1.104.027 3.526.027 5.382v3.376l.17.17.17.17.42.027c.231.015 3.291.021 6.8.015 6.353-.013 6.381-.013 6.52-.095a.86.86 0 0 0 .23-.216l.09-.134v-5.354c0-2.945.01-5.354.021-5.354.012 0 .43.37.93.823.5.452.98.859 1.066.904.399.208.872-.057 1.03-.577.093-.306.044-.371-.976-1.314-3.391-3.133-8.867-8.06-9.024-8.12-.152-.059-.46-.042-.568.031m1.168 2.461c.447.401 1.727 1.555 2.843 2.564l2.03 1.836-.01 5.526-.01 5.526-5.71.01-5.71.01.01-5.549.01-5.549 1.94-1.756C10.316 5.394 11.885 4 11.927 4c.015 0 .393.328.84.728" fill-rule="evenodd"/></svg>