<svg viewBox="0 0 24 24" fill="none" xmlns="http://www.w3.org/2000/svg"><path d="M3.58 3.047c-.344.066-.697.263-.984.549-.796.797-.796 2.011 0 2.808.797.796 2.011.796 2.808 0 .796-.797.796-2.011 0-2.808-.491-.49-1.127-.682-1.824-.549M8.805 4.28c-.391.092-.633.519-.524.924.059.218.288.453.5.511.225.063 12.213.063 12.438 0a.84.84 0 0 0 .306-.191.739.739 0 0 0-.348-1.246c-.194-.045-12.181-.043-12.372.002M3.58 10.047c-.344.066-.697.263-.984.549-.796.797-.796 2.011 0 2.808.797.796 2.011.796 2.808 0 .796-.797.796-2.011 0-2.808-.491-.49-1.127-.682-1.824-.549m5.225 1.233c-.391.092-.633.519-.524.924.059.218.288.453.5.511.225.063 12.213.063 12.438 0a.84.84 0 0 0 .306-.191.739.739 0 0 0-.348-1.246c-.194-.045-12.181-.043-12.372.002M3.58 17.047c-.721.138-1.381.801-1.536 1.545C1.789 19.816 2.751 21 4 21c1.08 0 2-.92 2-2 0-.523-.21-1.017-.596-1.404-.491-.49-1.127-.682-1.824-.549m5.225 1.233c-.391.092-.633.519-.524.924.059.218.288.453.5.511.225.063 12.213.063 12.438 0a.84.84 0 0 0 .306-.191.739.739 0 0 0-.348-1.246c-.194-.045-12.181-.043-12.372.002" fill-rule="evenodd" fill="currentColor"/></svg>