<svg viewBox="0 0 32 32" fill="currentColor" xmlns="http://www.w3.org/2000/svg"><path d="M14.293 3.122c-2.513.574-4.67 1.757-6.455 3.543-1.997 1.996-3.239 4.468-3.713 7.388-.12.739-.136 2.791-.027 3.52.233 1.559.599 2.749 1.261 4.107.679 1.393 1.473 2.483 2.623 3.603 1.451 1.414 3.097 2.42 4.965 3.036 2.745.905 5.545.906 8.284.003 2.534-.835 4.712-2.402 6.361-4.574.413-.544.49-.835.325-1.229-.188-.45-.415-.578-1.21-.676-4.519-.563-8.285-3.227-10.257-7.256-.909-1.859-1.318-3.637-1.317-5.734 0-1.456.17-2.603.582-3.927.227-.729.266-1.006.18-1.266-.109-.331-.616-.684-.962-.669a9.386 9.386 0 0 0-.64.131m-.821 2.411c-.015.052-.075.358-.132.68-.34 1.922-.282 4.206.156 6.051 1.15 4.849 4.587 8.822 9.188 10.618.673.263 2.088.691 2.283.691.17 0 .114.083-.314.466-1.805 1.616-3.843 2.563-6.162 2.866-5.525.72-10.773-2.855-12.14-8.27-.509-2.015-.422-4.321.236-6.257a11.075 11.075 0 0 1 6.133-6.655c.706-.307.794-.329.752-.19" fill-rule="evenodd"/></svg>