<svg viewBox="0 0 24 24" fill="none" xmlns="http://www.w3.org/2000/svg"><path d="M18.314 3.279a.798.798 0 0 0-.436.312l-.098.143-.012 2.663c-.006 1.465-.001 2.722.012 2.794.048.266.43.566.723.568a.822.822 0 0 0 .3-.089c.218-.112 3.623-2.544 3.745-2.676a.906.906 0 0 0 .212-.505.943.943 0 0 0-.099-.311c-.093-.186-.21-.277-1.941-1.513-1.013-.723-1.909-1.339-1.991-1.368a.566.566 0 0 0-.415-.018M1.805 6.28c-.391.092-.633.519-.524.924.059.218.288.453.5.511.225.063 12.213.063 12.438 0a.84.84 0 0 0 .306-.191.739.739 0 0 0-.348-1.246c-.194-.045-12.181-.043-12.372.002m0 6c-.391.092-.633.519-.524.924.059.218.288.453.5.511.226.063 18.212.063 18.438 0a.84.84 0 0 0 .306-.191.739.739 0 0 0-.348-1.246c-.194-.045-18.181-.043-18.372.002m0 6c-.391.092-.633.519-.524.924.059.218.288.453.5.511.226.063 18.212.063 18.438 0a.84.84 0 0 0 .306-.191.739.739 0 0 0-.348-1.246c-.194-.045-18.181-.043-18.372.002" fill="currentColor" fill-rule="evenodd"/></svg>