<svg viewBox="0 0 24 24" fill="currentColor" xmlns="http://www.w3.org/2000/svg"><path d="M11.66 2.263a.77.77 0 0 0-.365.366c-.046.107-.055 1.178-.055 6.409v6.28l-.33-.214a5.41 5.41 0 0 0-1.922-.792c-.351-.077-.529-.089-1.268-.089-.93 0-1.257.047-1.943.277-1.32.443-2.399 1.39-2.821 2.477-.511 1.316-.148 2.748.961 3.794 1.611 1.521 4.365 1.855 6.483.788.741-.373 1.33-.88 1.742-1.5.256-.385.388-.691.499-1.151.076-.317.078-.492.079-5.103 0-4.527.004-4.773.07-4.756.039.01 1.643.608 3.566 1.329 3.199 1.199 3.513 1.309 3.689 1.292a.73.73 0 0 0 .59-.4c.083-.171.085-.22.084-2.073 0-2.01-.012-2.164-.2-2.672a3.25 3.25 0 0 0-1.484-1.701c-.143-.079-1.749-.702-3.568-1.384-3.506-1.314-3.529-1.322-3.807-1.177m3.798 2.779c1.47.551 2.758 1.046 2.864 1.099.444.225.801.746.877 1.279.046.325.056 2.421.011 2.418a355.32 355.32 0 0 1-3.25-1.211l-3.22-1.209-.01-1.689c-.006-.929.004-1.689.023-1.689s1.236.451 2.705 1.002M8.281 15.721c1.826.222 3.094 1.406 2.914 2.719-.061.438-.263.802-.667 1.199-.744.73-1.752 1.077-2.988 1.029-.887-.035-1.651-.277-2.274-.722-.943-.674-1.277-1.693-.841-2.564.583-1.163 2.205-1.862 3.856-1.661" fill-rule="evenodd"/></svg>