<svg width="100%" height="100%" viewBox="0 0 24 24" fill="currentColor" xmlns="http://www.w3.org/2000/svg">
<path d="M11.2273 2.9325C11.2273 2.40885 11.7503 2.04639 12.2406 2.23025L18.6187 4.62194C19.8872 5.09761 20.7276 6.31027 20.7276 7.66502V10.9339C20.7276 11.4575 20.2045 11.82 19.7142 11.6361L12.7273 9.01582V17.6825C12.7273 17.7371 12.7214 17.7903 12.7104 17.8416C12.7214 17.9535 12.7273 18.0673 12.7273 18.1825C12.7273 20.4422 10.4515 22.1825 7.72728 22.1825C5.00307 22.1825 2.72728 20.4422 2.72728 18.1825C2.72728 15.9228 5.00307 14.1825 7.72728 14.1825C9.0794 14.1825 10.3211 14.6112 11.2288 15.3194L11.2273 2.9325ZM7.72728 15.6825C5.75706 15.6825 4.22728 16.8523 4.22728 18.1825C4.22728 19.5127 5.75706 20.6825 7.72728 20.6825C9.69749 20.6825 11.2273 19.5127 11.2273 18.1825C11.2273 16.8523 9.69749 15.6825 7.72728 15.6825ZM12.7273 4.01474V7.4141L19.2276 9.85162V7.66502C19.2276 6.93554 18.775 6.28257 18.092 6.02644L12.7273 4.01474Z" />
</svg>
