<svg viewBox="0 0 24 24" fill="currentColor" xmlns="http://www.w3.org/2000/svg"><path d="M7.66 2.604a4.66 4.66 0 0 0-2.365.931c-.307.231-.835.781-1.042 1.086a5.12 5.12 0 0 0-.775 1.974c-.075.513-.03 1.374.095 1.845.493 1.851 1.965 3.196 3.828 3.498.975.158 1.905.014 2.823-.437a4.656 4.656 0 0 0 2.434-2.879c.145-.499.188-.814.188-1.362a4.694 4.694 0 0 0-3.553-4.542c-.269-.068-1.052-.167-1.213-.152l-.42.038m1.289 1.355a3.457 3.457 0 0 1 2.493 2.408c.109.38.145 1.052.079 1.462a3.402 3.402 0 0 1-.875 1.78c-.43.457-.806.705-1.371.904-1.863.656-3.892-.403-4.435-2.315-.129-.455-.149-1.119-.048-1.606A3.437 3.437 0 0 1 7.34 3.957c.404-.102 1.177-.101 1.609.002m8.111.363c-.833.111-1.609.5-2.222 1.115a3.792 3.792 0 0 0-1.117 2.683c0 .495.053.812.216 1.29.185.545.453.973.883 1.413.717.734 1.539 1.109 2.548 1.165 1.823.101 3.466-1.104 3.937-2.888.144-.544.153-1.306.023-1.831-.355-1.43-1.454-2.534-2.856-2.869a4.65 4.65 0 0 0-1.412-.078m.96 1.3c.486.061 1.114.413 1.477.827.234.268.484.746.562 1.076a3.31 3.31 0 0 1-.001 1.235 2.587 2.587 0 0 1-1.34 1.673c-.66.317-1.315.362-1.972.136A2.57 2.57 0 0 1 15.06 7.62c.18-.861.872-1.632 1.72-1.92.362-.122.711-.144 1.24-.078M3.025 13.764c-.391.092-.79.374-1.022.721-.278.417-.291.527-.273 2.295.018 1.66.024 1.712.249 2.339.327.914 1.169 1.796 2.209 2.316 1.95.975 4.792 1.122 7.019.364 1.872-.637 2.985-1.789 3.293-3.409.084-.445.087-3.107.003-3.421a1.753 1.753 0 0 0-.789-1.019c-.409-.239-.193-.23-5.592-.226-2.813.002-5.009.02-5.097.04m11.775-.025c0 .011.062.107.138.213.185.258.374.664.405.874l.026.172 2.695.011 2.694.011.111.111.111.111.012 1.06c.016 1.47-.06 1.863-.473 2.452-.358.51-.863.857-1.599 1.101-1.117.369-2.414.376-3.5.018a12.02 12.02 0 0 1-.401-.136c-.023-.01-.101.104-.175.253a4.632 4.632 0 0 1-.331.544c-.11.15-.193.278-.186.285a7.9 7.9 0 0 0 .373.153c.929.368 2.081.53 3.06.431 2.175-.221 3.733-1.243 4.288-2.813.199-.56.232-.88.232-2.212 0-1.087-.008-1.236-.078-1.461-.149-.479-.451-.812-.953-1.049l-.269-.128-3.09-.011c-1.699-.006-3.09-.002-3.09.01m-1.637 1.412.117.13v1.296c0 1.69-.058 2.004-.486 2.644-.572.855-1.674 1.412-3.334 1.685-.68.112-2.066.101-2.76-.022-1.902-.336-3.104-1.107-3.522-2.257-.154-.426-.184-.793-.17-2.133.011-1.18.016-1.25.092-1.335a.563.563 0 0 1 .16-.121c.044-.019 2.264-.03 4.933-.026l4.854.008.116.131" fill-rule="evenodd"/></svg>