<svg viewBox="0 0 24 24" fill="currentColor" xmlns="http://www.w3.org/2000/svg"><path d="M11.34 2.046a4.934 4.934 0 0 0-1.52.471C8.374 3.226 7.39 4.51 7.075 6.1c-.073.368-.073 1.432 0 1.8a5.076 5.076 0 0 0 4.025 4.025c.368.073 1.432.073 1.8 0a5.104 5.104 0 0 0 2.508-1.277c.74-.695 1.205-1.496 1.461-2.517.097-.387.108-.503.108-1.131s-.011-.744-.108-1.131c-.192-.767-.496-1.396-.943-1.957a5.04 5.04 0 0 0-4.586-1.866m1.608 1.335c.373.095.877.323 1.21.55.234.159.752.677.911.911.227.334.455.837.558 1.23a4.014 4.014 0 0 1 0 1.856 4.473 4.473 0 0 1-.557 1.23c-.207.307-.791.847-1.142 1.057a3.8 3.8 0 0 1-2.336.512 4.05 4.05 0 0 1-1.52-.512c-.351-.21-.935-.75-1.142-1.057a4.473 4.473 0 0 1-.557-1.23 4.014 4.014 0 0 1 0-1.856A3.726 3.726 0 0 1 12.2 3.267c.209.012.546.063.748.114M5.651 14.06c-.759.165-1.408.813-1.591 1.59-.07.297-.079 1.089-.017 1.533.411 2.953 3.488 4.816 7.957 4.816 4.437 0 7.501-1.831 7.94-4.747.079-.52.078-1.326-.001-1.63-.202-.776-.848-1.402-1.614-1.564-.386-.082-12.297-.079-12.674.002m12.609 1.286c.185.1.3.217.405.414.109.203.096 1.163-.022 1.62-.464 1.805-2.302 2.959-5.263 3.306-.567.066-2.193.066-2.76 0-3.24-.379-5.107-1.704-5.339-3.786-.095-.848-.013-1.221.321-1.468.266-.197.001-.19 6.458-.181l6.04.009.16.086" fill-rule="evenodd"/></svg>