<svg width="100%" height="100%" viewBox="0 0 24 24" fill="currentColor" xmlns="http://www.w3.org/2000/svg">
<path d="M17.8751 14C19.0138 14 19.9438 14.8955 19.9975 16.0214L20 16.1243V16.5C20 18.3778 19.0291 19.7834 17.5399 20.6901C16.0754 21.5816 14.107 22 12 22C9.89305 22 7.92455 21.5816 6.4601 20.6901C5.01596 19.8109 4.05931 18.4625 4.00266 16.6694L4 16.5V16.1245C4 14.9852 4.89647 14.0561 6.02202 14.0024L6.12495 14H17.8751ZM17.8751 15.25H6.12495C5.66567 15.25 5.28938 15.6033 5.2529 16.0527L5.25 16.1245V16.5C5.25 17.8722 5.9301 18.9041 7.1101 19.6224C8.31485 20.3559 10.0338 20.75 12 20.75C13.9662 20.75 15.6852 20.3559 16.8899 19.6224C18.0278 18.9297 18.7008 17.9455 18.7474 16.6457L18.75 16.5V16.1244C18.75 15.6656 18.3967 15.2894 17.9469 15.2529L17.8751 15.25ZM12 2C14.7614 2 17 4.23857 17 7C17 9.7614 14.7614 12 12 12C9.2386 12 7 9.7614 7 7C7 4.23857 9.2386 2 12 2ZM12 3.25C9.92895 3.25 8.25 4.92893 8.25 7C8.25 9.07105 9.92895 10.75 12 10.75C14.071 10.75 15.75 9.07105 15.75 7C15.75 4.92893 14.071 3.25 12 3.25Z" />
</svg>