<svg viewBox="0 0 24 24" xmlns="http://www.w3.org/2000/svg"><path d="M11.745 4.039c-.163.052-.302.192-.4.401-.084.178-.085.216-.096 3.488l-.011 3.309-3.309.011c-3.264.012-3.311.013-3.49.096-.331.153-.476.419-.427.785.039.292.275.512.631.588.134.029 1.269.043 3.399.043h3.198v3.198c0 2.13.014 3.265.043 3.399a.894.894 0 0 0 .33.539c.161.12.613.12.774 0a.894.894 0 0 0 .33-.539c.029-.134.043-1.269.043-3.399V12.76h3.198c2.13 0 3.265-.014 3.399-.043.356-.076.592-.296.631-.588.049-.366-.096-.632-.427-.785-.179-.083-.226-.084-3.491-.096l-3.31-.011V8.04c0-2.128-.014-3.263-.043-3.397a.894.894 0 0 0-.319-.531c-.119-.088-.481-.128-.653-.073" fill="currentColor" fill-rule="evenodd"/></svg>