<svg xmlns="http://www.w3.org/2000/svg" viewBox="0 0 24 24" fill="none" stroke="currentColor" stroke-width="1.5" stroke-linecap="round" stroke-linejoin="round" class="feather feather-save"><path d="M4.617 2.283c-.584.069-1.098.328-1.552.781a2.742 2.742 0 0 0-.696 1.116l-.109.32v15l.109.32c.151.445.362.783.695 1.116.333.333.671.544 1.116.695l.32.109h15l.32-.109a2.736 2.736 0 0 0 1.116-.695c.333-.333.544-.671.695-1.116l.109-.32.011-5.772c.008-4.096-.002-5.821-.033-5.94-.039-.149-.344-.469-2.631-2.76-1.423-1.425-2.65-2.631-2.727-2.68l-.14-.088-5.66-.005c-3.113-.003-5.788.01-5.943.028M6.24 5.91c0 1.445.015 2.202.045 2.309.056.204.292.44.496.496.224.063 8.214.063 8.438 0a.84.84 0 0 0 .306-.191.739.739 0 0 0-.348-1.246c-.088-.02-1.753-.037-3.787-.037L7.76 7.24V3.76h7.94l2.271 2.271 2.27 2.27-.011 5.52-.01 5.519-.093.189c-.132.268-.416.534-.674.63-.188.071-.312.081-.955.081h-.738v-3.65c0-2.387-.015-3.701-.042-3.799a.825.825 0 0 0-.373-.462c-.116-.064-.491-.069-5.345-.069s-5.229.005-5.345.069a.825.825 0 0 0-.373.462c-.027.098-.042 1.412-.042 3.799v3.65h-.738c-.643 0-.767-.01-.955-.081-.258-.096-.542-.362-.674-.63l-.093-.189-.011-7.26c-.009-5.436 0-7.303.035-7.43.093-.34.433-.7.782-.828.111-.041.365-.057.904-.059l.75-.003v2.15m10 11.09v3.24H7.76v-6.48h8.48V17" fill-rule="evenodd" fill="currentColor" stroke="none"/></svg>