<svg viewBox="0 0 24 24" fill="currentColor" xmlns="http://www.w3.org/2000/svg"><path d="M9.44 1.044a9.421 9.421 0 0 0-4.936 1.985c-.421.33-1.285 1.217-1.613 1.655C.763 7.527.407 11.216 1.957 14.38a9.303 9.303 0 0 0 5.993 4.903c.815.21 1.418.287 2.29.291.438.002.947-.02 1.16-.049 1.688-.23 3.26-.876 4.545-1.866l.324-.25 2.716 2.72c1.845 1.848 2.766 2.743 2.875 2.794.23.108.452.097.704-.034a.791.791 0 0 0 .359-1.029c-.051-.109-.946-1.03-2.794-2.875L17.41 16.27l.277-.362c.972-1.271 1.61-2.836 1.838-4.508.081-.594.062-1.834-.038-2.46-.378-2.369-1.521-4.372-3.341-5.856-1.849-1.507-4.347-2.267-6.706-2.04M11.297 2.7a7.69 7.69 0 0 1 6.501 6.044c.139.671.186 1.445.129 2.125-.087 1.036-.301 1.837-.727 2.722-1.557 3.234-5.08 4.957-8.555 4.184a7.696 7.696 0 0 1-4.719-3.225A7.598 7.598 0 0 1 2.64 10.3c0-1.875.634-3.573 1.887-5.053C5.47 4.133 7.008 3.203 8.5 2.843c.83-.2 1.931-.256 2.797-.143M6.26 5.81c-.21.054-.679.525-.99.993a5.512 5.512 0 0 0-.95 3.14c0 .619.058.861.249 1.046.418.405 1.043.304 1.291-.207.09-.185.098-.247.095-.742a5.665 5.665 0 0 1 .043-.794 3.968 3.968 0 0 1 .831-1.799c.411-.507.445-.559.472-.743a.822.822 0 0 0-.593-.898c-.21-.053-.231-.053-.448.004" fill-rule="evenodd"/></svg>