<svg viewBox="0 0 24 24" fill="currentColor" xmlns="http://www.w3.org/2000/svg"><path d="M11.3 1.744c-1.086.112-1.7.236-1.903.383-.253.183-.298.333-.416 1.383-.108.963-.147 1.134-.312 1.396-.272.431-.711.663-1.247.659-.294-.002-.37-.028-1.369-.468-.761-.334-.795-.345-1.038-.329-.208.013-.279.037-.404.138-.423.341-1.28 1.52-1.725 2.374-.395.756-.731 1.663-.731 1.97.001.344.098.454.995 1.118.541.4.851.657.929.77.202.294.261.489.261.862s-.059.568-.262.863c-.078.114-.388.371-.93.773-.897.665-.993.772-.993 1.114 0 .322.345 1.241.77 2.048.411.784 1.126 1.779 1.586 2.21.218.203.457.294.669.255.071-.014.522-.198 1.004-.409.772-.339.91-.387 1.159-.404a1.41 1.41 0 0 1 .921.24c.233.157.474.464.555.71.033.099.107.594.163 1.1.068.604.128.976.176 1.084.145.329.418.445 1.419.604.625.099 2.221.099 2.846 0 .682-.109 1.039-.205 1.191-.321.233-.178.292-.364.384-1.207.112-1.025.15-1.239.261-1.456.128-.251.389-.502.657-.634.199-.098.269-.11.624-.11h.4l.88.385c.484.212.931.397.994.412.064.015.204 0 .323-.034.164-.048.256-.111.427-.292.555-.588 1.129-1.406 1.55-2.211.394-.753.731-1.662.731-1.97-.001-.344-.097-.452-.997-1.118-.644-.477-.843-.646-.954-.812a1.439 1.439 0 0 1 0-1.64c.111-.166.31-.336.96-.817.901-.666.986-.764.986-1.132 0-.194-.172-.732-.42-1.311a10.756 10.756 0 0 0-1.546-2.496c-.471-.559-.577-.637-.89-.656-.245-.016-.277-.006-1.044.331-1.002.441-1.068.464-1.362.466-.466.004-.804-.144-1.111-.486-.271-.301-.327-.498-.447-1.564-.119-1.053-.164-1.205-.414-1.386-.172-.124-.453-.194-1.246-.31-.409-.059-1.74-.108-2.06-.075m1.4 1.296c.468.042.98.117.98.143 0 .008.037.343.083.743.127 1.113.31 1.576.837 2.112.326.332.639.523 1.122.685.329.111.433.127.798.128.535 0 .752-.058 1.606-.43l.675-.294.255.326c.521.669 1.093 1.674 1.34 2.357l.083.23-.609.453c-.717.531-1.006.833-1.226 1.282-.215.438-.292.763-.291 1.228.001.464.078.788.291 1.222.22.448.509.751 1.226 1.284.336.249.61.462.61.472 0 .011-.096.243-.214.517-.334.779-.878 1.674-1.346 2.215l-.14.162-.66-.295c-.832-.372-1.096-.436-1.714-.411-.749.029-1.258.249-1.784.771-.544.539-.73 1.004-.86 2.14-.046.404-.09.742-.099.75a3.623 3.623 0 0 1-.389.08c-.271.048-.621.065-1.274.065s-1.003-.017-1.274-.065a3.623 3.623 0 0 1-.389-.08 10.231 10.231 0 0 1-.097-.732c-.045-.395-.109-.817-.144-.938a2.726 2.726 0 0 0-2.636-2c-.471 0-.816.089-1.48.381l-.649.284-.13.056-.236-.297a9.748 9.748 0 0 1-1.445-2.608c0-.007.274-.218.61-.467.875-.651 1.163-.999 1.395-1.689.081-.24.095-.358.095-.82 0-.488-.011-.572-.113-.868a2.892 2.892 0 0 0-.601-1.007c-.091-.096-.44-.379-.776-.629s-.61-.464-.61-.476c0-.011.096-.244.214-.518.334-.78.883-1.681 1.346-2.214l.14-.161.57.256c.313.141.679.293.813.338 1.418.478 3.003-.331 3.456-1.764.071-.226.261-1.515.261-1.774 0-.024.5-.101.9-.139.52-.048.978-.05 1.48-.004m-1.455 5.179c-.8.182-1.421.517-1.967 1.06a3.848 3.848 0 1 0 5.932 4.841c.444-.683.633-1.323.634-2.14 0-1.447-.782-2.721-2.086-3.398-.565-.293-.952-.388-1.658-.406-.428-.01-.673.002-.855.043m1.322 1.279c.469.099.849.315 1.233.701.522.522.759 1.085.759 1.801s-.237 1.279-.759 1.801c-.526.528-1.072.758-1.8.758s-1.274-.23-1.801-.758c-.266-.265-.375-.41-.493-.654a2.597 2.597 0 0 1 0-2.294c.118-.244.227-.388.493-.654.523-.524 1.056-.749 1.781-.755.176-.001.44.023.587.054" fill-rule="evenodd"/></svg>