<svg xmlns="http://www.w3.org/2000/svg" viewBox="0 0 24 24" fill="none" stroke="currentColor" stroke-width="2" stroke-linecap="round" stroke-linejoin="round" class="feather feather-share-2"><path d="M17.358 1.061c-1.128.176-2.215.913-2.789 1.892-.498.85-.681 1.873-.495 2.781.072.353.072.353-.011.406-.235.147-5.18 3.02-5.2 3.02-.013 0-.172-.117-.353-.261a4.012 4.012 0 0 0-1.905-.841 3.416 3.416 0 0 0-1.21 0c-2.24.338-3.763 2.505-3.312 4.715a3.973 3.973 0 0 0 2.429 2.931 3.969 3.969 0 0 0 2.976 0c.421-.17.689-.33 1.059-.631.157-.128.298-.233.313-.233.022 0 4.945 2.858 5.203 3.02.083.053.083.053.011.406-.325 1.59.449 3.307 1.882 4.17a4.069 4.069 0 0 0 2.801.485c1.627-.332 2.832-1.537 3.164-3.164a3.941 3.941 0 0 0-.216-2.241 3.978 3.978 0 0 0-3.1-2.458 3.416 3.416 0 0 0-1.21 0 4.012 4.012 0 0 0-1.905.841 4.184 4.184 0 0 1-.349.261c-.018 0-5-2.892-5.204-3.02-.083-.053-.083-.053-.011-.406a3.933 3.933 0 0 0 .001-1.467l-.073-.352.463-.272c1.667-.98 4.806-2.803 4.826-2.803.013 0 .153.105.31.233.37.301.638.461 1.059.631a3.988 3.988 0 0 0 5.192-2.216 3.963 3.963 0 0 0 .001-2.972 3.978 3.978 0 0 0-3.1-2.458 3.728 3.728 0 0 0-1.247.003m1.165 2.012a2.011 2.011 0 0 1 1.444 1.617c.1.653-.094 1.243-.564 1.714C19.002 6.807 18.547 7 18 7a1.994 1.994 0 0 1-1.72-.995c-.904-1.525.517-3.382 2.243-2.932m-12 7c1.189.311 1.816 1.7 1.268 2.807-.159.319-.57.748-.861.895a1.976 1.976 0 0 1-2.277-.31c-1.33-1.236-.464-3.46 1.347-3.46.143 0 .378.031.523.068m12 7a2.011 2.011 0 0 1 1.444 1.617c.1.653-.094 1.243-.564 1.714-.401.403-.856.596-1.403.596-.515 0-.962-.178-1.347-.535-.698-.649-.852-1.662-.375-2.466a1.993 1.993 0 0 1 2.245-.926" fill="currentColor" fill-rule="evenodd" stroke="none"/></svg>