<svg viewBox="0 0 24 24" fill="none" xmlns="http://www.w3.org/2000/svg"><path d="M17.9 3.259a1.438 1.438 0 0 1-.147.037c-.236.052-.51.407-.512.664-.002.3.07.403.771 1.109l.684.69-3.225.01-3.224.011-.174.12c-.159.11-.22.213-.743 1.253-.505 1.003-.57 1.156-.57 1.332a.74.74 0 0 0 1.082.674c.216-.11.316-.263.757-1.153l.379-.766H18.697l-.683.69c-.74.747-.805.846-.756 1.17a.754.754 0 0 0 .947.62c.155-.041.334-.204 1.528-1.393.744-.741 1.388-1.414 1.43-1.495.094-.181.1-.47.013-.644-.073-.147-2.665-2.766-2.816-2.846-.105-.055-.392-.107-.46-.083M2.805 5.279c-.515.125-.725.789-.379 1.201.226.268.133.258 2.494.28l2.139.02 2.648 5.055c1.456 2.78 2.698 5.109 2.76 5.175.224.238.108.23 3.3.23h2.93l-.683.69c-.74.747-.805.846-.756 1.17a.754.754 0 0 0 .947.62c.155-.041.334-.205 1.545-1.412.753-.751 1.396-1.423 1.43-1.493a.887.887 0 0 0 .01-.603c-.051-.114-2.539-3.12-2.714-3.279a.764.764 0 0 0-.743-.131.83.83 0 0 0-.455.526c-.084.35-.037.432.825 1.467.427.513.777.94.777.949 0 .009-1.22.016-2.71.016l-2.71-.001-2.64-5.047C9.368 7.937 8.128 5.605 8.064 5.531c-.245-.285-.102-.27-2.744-.278-1.309-.003-2.441.008-2.515.026m6.006 7.999c-.292.072-.391.201-.842 1.105l-.428.857-2.281.001c-1.254 0-2.351.017-2.437.037a.739.739 0 0 0-.348 1.246.84.84 0 0 0 .306.191c.22.062 5.175.062 5.399.001.327-.089.381-.164.976-1.349.306-.611.569-1.174.584-1.252a.792.792 0 0 0-.161-.588.818.818 0 0 0-.768-.249" fill-rule="evenodd" fill="currentColor"/></svg>