<svg viewBox="0 0 32 32" fill="currentColor" xmlns="http://www.w3.org/2000/svg"><path d="M14.987 4.507v2.48h2.026v-4.96h-2.026v2.48M6.093 6.094l-.706.707 1.76 1.759 1.76 1.759.706-.706.707-.706-1.761-1.761-1.76-1.76-.706.708M23.44 7.147l-1.759 1.76.706.706.706.707 1.761-1.761 1.76-1.76-.708-.706-.707-.706-1.759 1.76m-8.533 2.96c-2.825.518-4.891 3.004-4.896 5.893A5.982 5.982 0 0 0 16 21.989a6.002 6.002 0 0 0 5.816-4.533c.31-1.211.215-2.521-.269-3.731-.74-1.847-2.505-3.275-4.474-3.62-.538-.094-1.647-.093-2.166.002m1.807 1.972c1.984.353 3.415 2.196 3.264 4.2-.158 2.088-1.892 3.715-3.967 3.72-1.939.005-3.601-1.402-3.939-3.332-.152-.869-.035-1.612.39-2.48.211-.429.323-.581.733-.989.982-.976 2.182-1.358 3.519-1.119M1.997 15.055c-.014.038-.02.488-.012 1l.015.932 2.493.014 2.494.013v-2.027H4.505c-1.972 0-2.487.014-2.508.068M25.013 16v1.014l2.494-.013L30 16.987v-1.974l-2.493-.014-2.494-.013V16m-17.88 7.454-1.747 1.747.708.706.707.706 1.759-1.76 1.759-1.759-.692-.694c-.381-.381-.705-.693-.72-.693-.015 0-.814.786-1.774 1.747m15.24-1.054-.692.694 1.759 1.759 1.759 1.76.707-.706.708-.706-1.747-1.747c-.96-.961-1.759-1.747-1.774-1.747-.015 0-.339.312-.72.693m-7.374 5.107L15.013 30h1.974l.014-2.493.013-2.494h-2.028l.013 2.494" fill-rule="evenodd"/></svg>