<svg xmlns="http://www.w3.org/2000/svg" viewBox="0 0 24 24" fill="none" stroke="currentColor" stroke-width="1.5" stroke-linecap="round" stroke-linejoin="round" class="feather feather-trash-2"><path d="M9.617 1.283c-.583.068-1.098.327-1.552.781a2.681 2.681 0 0 0-.692 1.116c-.098.296-.107.385-.124 1.19l-.018.87-2.125.001c-1.169 0-2.197.017-2.283.037a.739.739 0 0 0-.348 1.246.84.84 0 0 0 .306.191c.087.025.451.045.808.045h.649l.011 6.87.011 6.87.109.32c.151.445.362.783.695 1.116.333.333.671.544 1.116.695l.32.109h11l.32-.109a2.736 2.736 0 0 0 1.116-.695c.333-.333.544-.671.695-1.116l.109-.32.011-6.87.011-6.87h.649c.357 0 .721-.02.808-.045a.84.84 0 0 0 .306-.191.739.739 0 0 0-.348-1.246c-.086-.02-1.114-.037-2.283-.037l-2.125-.001-.018-.87c-.017-.805-.026-.894-.124-1.19a2.681 2.681 0 0 0-.692-1.116c-.472-.471-.961-.709-1.606-.783-.414-.048-4.302-.045-4.712.002m4.911 1.59c.239.118.481.36.599.599.086.174.094.247.105.978l.013.79H8.76v-.735c0-.806.027-.948.236-1.233.065-.087.189-.212.277-.276.322-.237.259-.232 2.767-.224l2.3.008.188.093M18.23 13.55l-.01 6.79-.093.189c-.132.268-.416.534-.674.63-.213.08-.3.081-5.453.081-5.153 0-5.24-.001-5.453-.081-.258-.096-.542-.362-.674-.63l-.093-.189-.01-6.79-.011-6.79h12.482l-.011 6.79m-8.41-3.274a.729.729 0 0 0-.538.515c-.057.204-.057 6.214 0 6.418.108.39.52.618.92.51.22-.059.454-.287.513-.5.06-.214.062-6.215.003-6.428a.8.8 0 0 0-.353-.448.951.951 0 0 0-.545-.067m4 0a.729.729 0 0 0-.538.515c-.057.204-.057 6.214 0 6.418.108.39.52.618.92.51.22-.059.454-.287.513-.5.06-.214.062-6.215.003-6.428a.8.8 0 0 0-.353-.448.951.951 0 0 0-.545-.067" fill-rule="evenodd" fill="currentColor" stroke="none"/></svg>